<svg xmlns="http://www.w3.org/2000/svg" width="1024" height="1024" viewBox="-41 48.4219970703125 1105.8370361328125 927.1220092773438" class="colorable-icon reset-top-left-margin" data-export-recolorable-svg="true" overflow="visible" xmlns:xlink="http://www.w3.org/1999/xlink" fill="rgb(0, 0, 0)" stroke="none"><g fill="none" stroke="rgb(0, 0, 0)" stroke-width="45" stroke-linecap="round" stroke-linejoin="round"><path d="M 909.844,411.632 C 903.982,417.002 899.572,422.528 895.858,430.559 C 894.618,437.644 896.137,451.545 903.662,491.686" data-line="nan" stroke-width="45.0" fill="none" stroke="rgb(0, 0, 0)"/><path d="M 737.612,546.008 C 678.993,545.607 666.013,543.357 658.735,540.123 C 649.535,532.903 644.641,525.993 640.016,513.509" data-line="nan" stroke-width="45.0" fill="none" stroke="rgb(0, 0, 0)"/><path d="M 626.002,431.612 L 622.867,411.971" data-line="nan" stroke-width="45.0" fill="none" stroke="rgb(0, 0, 0)"/><path d="M 389.599,130.126 C 292.158,157.667 283.701,161.27 279.531,163.891 C 271.95,170.765 268.899,174.705 264.564,183.096 Q 261.612,195.406 261.192,268.358" data-line="nan" stroke-width="45.0" fill="none" stroke="rgb(0, 0, 0)"/><path d="M 261.192,268.358 C 261.418,299.33 263.383,311.361 269.267,324.565 C 276.014,332.847 279.974,336.235 288.619,341.319 Q 297.292,344.493 397.561,371.205" data-line="nan" stroke-width="45.0" fill="none" stroke="rgb(0, 0, 0)"/><path d="M 909.844,411.632 C 936.055,410.034 953.13,406.306 967.595,400.064 C 976.098,394.697 984.563,388.052 990.782,382.191 C 999.563,372.145 1009.384,357.087 1013.986,346.87 C 1016.815,338.088 1018.963,327.375 1019.837,317.236" data-line="nan" stroke-width="45.0" fill="none" stroke="rgb(0, 0, 0)"/><path d="M 1019.767,200.498 C 1019.015,185.811 1017.277,175.401 1012.84,161.193 C 1008.699,151.873 1002.126,140.347 994.855,130.432 C 986.255,121.035 978.0,113.775 971.264,108.996 C 959.152,102.561 950.43,99.163 937.683,95.763 Q 917.097,93.6 879.591,93.422" data-line="nan" stroke-width="45.0" fill="none" stroke="rgb(0, 0, 0)"/><path d="M 946.189,717.268 C 950.673,733.905 954.318,740.98 957.795,745.371 C 967.083,753.511 993.222,768.729 999.518,774.308 C 1006.197,782.768 1010.197,790.889 1013.055,801.446 L 1013.962,828.934" data-line="nan" stroke-width="45.0" fill="none" stroke="rgb(0, 0, 0)"/><path d="M 1013.769,891.502 C 1011.762,903.168 1008.431,911.209 1003.773,917.625 C 997.308,923.389 991.727,926.555 983.932,929.406 Q 975.442,930.485 960.976,930.544" data-line="nan" stroke-width="45.0" fill="none" stroke="rgb(0, 0, 0)"/><path d="M 573.498,930.372 C 561.412,928.119 549.829,922.488 540.476,913.147 C 536.017,904.401 533.425,890.053 533.249,819.189" data-line="nan" stroke-width="45.0" fill="none" stroke="rgb(0, 0, 0)"/><path d="M 533.249,819.189 C 533.855,806.954 537.325,794.81 543.477,784.415 C 549.86,777.765 559.093,770.898 570.019,765.945 Q 580.245,763.132 594.259,761.478" data-line="nan" stroke-width="45.0" fill="none" stroke="rgb(0, 0, 0)"/><path d="M 708.735,761.006 C 721.137,758.9 728.818,756.033 737.435,751.556 C 748.232,742.764 753.911,736.18 757.964,729.833 C 762.775,717.316 764.462,703.464 763.328,689.942 L 758.696,663.534" data-line="nan" stroke-width="45.0" fill="none" stroke="rgb(0, 0, 0)"/><path d="M 726.269,482.608 C 720.957,461.563 713.08,444.633 703.358,432.063 C 690.981,422.174 677.946,416.231 665.362,413.426 Q 652.87,412.469 605.064,411.751" data-line="nan" stroke-width="45.0" fill="none" stroke="rgb(0, 0, 0)"/><path d="M 435.837,411.62 C 424.613,409.65 416.323,406.055 410.419,401.507 C 403.806,393.865 400.561,386.881 397.561,371.205 L 397.513,349.949" data-line="nan" stroke-width="45.0" fill="none" stroke="rgb(0, 0, 0)"/><path d="M 435.888,93.589 C 426.148,95.371 414.198,101.045 406.853,107.375 L 397.597,119.328" data-line="nan" stroke-width="45.0" fill="none" stroke="rgb(0, 0, 0)"/><path d="M 397.513,349.949 L 397.594,127.86" data-line="3.0" stroke-width="45.0" fill="none" stroke="rgb(0, 0, 0)"/><path d="M 903.662,491.686 L 946.189,717.268" data-line="5.0" stroke-width="45.0" fill="none" stroke="rgb(0, 0, 0)"/><path d="M 4.0,250.7 L 261.193,250.619" data-line="7.0" stroke-width="45.0" fill="none" stroke="rgb(0, 0, 0)"/><path d="M 640.016,513.509 L 626.002,431.612" data-line="7.0" stroke-width="45.0" fill="none" stroke="rgb(0, 0, 0)"/><path d="M 1019.837,317.236 L 1019.767,200.498" data-line="12.0" stroke-width="45.0" fill="none" stroke="rgb(0, 0, 0)"/><path d="M 787.681,214.741 L 898.698,214.623" data-line="13.0" stroke-width="45.0" fill="none" stroke="rgb(0, 0, 0)"/><path d="M 1013.962,828.934 L 1013.769,891.502" data-line="15.0" stroke-width="45.0" fill="none" stroke="rgb(0, 0, 0)"/><path d="M 960.976,930.544 L 573.498,930.372" data-line="17.0" stroke-width="45.0" fill="none" stroke="rgb(0, 0, 0)"/><path d="M 758.696,663.534 L 726.269,482.608" data-line="17.0" stroke-width="45.0" fill="none" stroke="rgb(0, 0, 0)"/><path d="M 594.259,761.478 L 708.735,761.006" data-line="20.0" stroke-width="45.0" fill="none" stroke="rgb(0, 0, 0)"/><path d="M 605.064,411.751 L 435.837,411.62" data-line="23.0" stroke-width="45.0" fill="none" stroke="rgb(0, 0, 0)"/><path d="M 879.591,93.422 L 435.888,93.589" data-line="25.0" stroke-width="45.0" fill="none" stroke="rgb(0, 0, 0)"/></g></svg>