<svg xmlns="http://www.w3.org/2000/svg" width="1024" height="1024" viewBox="-35.50367736816406 -40.0897536277771 1095.3906860351562 1103.8667602539062" class="colorable-icon reset-top-left-margin" data-export-recolorable-svg="true" overflow="visible" xmlns:xlink="http://www.w3.org/1999/xlink" fill="rgb(0, 0, 0)" stroke="none"><g fill="none" stroke="rgb(0, 0, 0)" stroke-width="45" stroke-linecap="round" stroke-linejoin="round"><path d="M 78.427,767.507 C 59.386,731.714 42.339,692.31 29.619,654.839 C 19.339,613.45 12.335,569.949 9.514,533.731 C 9.212,490.385 12.801,447.22 18.628,410.847 C 28.352,370.959 42.109,329.335 58.207,291.227 C 77.234,255.348 100.19,219.402 125.699,185.701 C 151.716,156.311 181.101,128.292 211.522,103.533 C 244.269,80.956 281.023,59.992 315.422,43.879 C 354.73,29.233 393.935,18.079 437.724,9.169 C 475.869,5.169 524.034,4.062 557.752,5.532 C 598.991,10.917 641.658,20.162 680.738,32.088 C 714.143,45.275 749.957,62.666 784.497,83.094 C 817.339,106.453 851.05,135.144 879.303,163.3 C 904.281,192.348 929.168,226.4 950.28,260.674 C 969.934,298.995 984.885,335.646 996.954,373.614 C 1006.191,413.419 1012.055,452.573 1014.887,493.006 C 1014.625,538.201 1011.197,576.62 1004.431,615.312 C 994.743,653.878 981.928,691.629 964.621,731.202 C 943.33,770.671 921.075,804.655 896.788,836.302 C 869.066,867.238 840.194,894.854 810.654,919.121 C 777.42,942.39 742.809,962.797 707.226,979.925 C 668.07,994.819 629.801,1005.955 588.745,1014.28 L 548.054,1018.777" data-line="nan" stroke-width="45.0" fill="none" stroke="rgb(0, 0, 0)"/><path d="M 541.61,489.321 C 546.965,506.077 548.427,514.887 547.601,523.913 C 544.249,533.731 537.585,543.012 530.258,549.2 C 520.838,553.334 509.934,555.033 502.145,553.957 C 491.448,549.956 483.829,544.091 479.498,539.045 C 476.32,533.828 473.022,523.86 472.255,515.686 Q 473.678,505.76 477.112,491.457" data-line="nan" stroke-width="45.0" fill="none" stroke="rgb(0, 0, 0)"/><path d="M 510.201,86.189 L 510.628,166.337" data-line="2.0" stroke-width="45.0" fill="none" stroke="rgb(0, 0, 0)"/><path d="M 541.0481701229667,489.9195315831454 A 45.46854958952772,45.46854958952772 0 0,0 477.1835680518295,491.5259433881249" data-line="3.0" stroke-width="45.0" fill="none" stroke="rgb(0, 0, 0)"/><path d="M 541.61,489.321 L 778.692,266.832" data-line="5.0" stroke-width="45.0" fill="none" stroke="rgb(0, 0, 0)"/><path d="M 297.481,337.191 L 477.112,491.457" data-line="6.0" stroke-width="45.0" fill="none" stroke="rgb(0, 0, 0)"/><path d="M 87.072,511.62 L 157.635,512.329" data-line="10.0" stroke-width="45.0" fill="none" stroke="rgb(0, 0, 0)"/><path d="M 870.535,514.41 L 936.252,512.66" data-line="11.0" stroke-width="45.0" fill="none" stroke="rgb(0, 0, 0)"/><path d="M 510.614,943.675 L 510.7,855.436" data-line="12.0" stroke-width="45.0" fill="none" stroke="rgb(0, 0, 0)"/><path d="M 548.054,1018.777 L 439.256,1014.523" data-line="13.0" stroke-width="45.0" fill="none" stroke="rgb(0, 0, 0)"/><path d="M 439.1857118361849,1014.9771511963222 A 504.0190230929822,504.0190230929822 0 0,1 78.84403810541573,767.2682920381968" data-line="14.0" stroke-width="45.0" fill="none" stroke="rgb(0, 0, 0)"/></g></svg>