<svg xmlns="http://www.w3.org/2000/svg" width="1024" height="1024" viewBox="-40.46461296081543 210.39199829101562 1100.34765625 608.2060546875" class="colorable-icon reset-top-left-margin" data-export-recolorable-svg="true" overflow="visible" xmlns:xlink="http://www.w3.org/1999/xlink" fill="rgb(0, 0, 0)" stroke="none"><g fill="none" stroke="rgb(0, 0, 0)" stroke-width="45" stroke-linecap="round" stroke-linejoin="round"><path d="M 1014.373,768.343 Q 982.957,772.849 927.842,773.598" data-line="nan" stroke-width="45.0" fill="none" stroke="rgb(0, 0, 0)"/><path d="M 294.769,773.417 Q 284.233,772.92 252.503,768.627" data-line="nan" stroke-width="45.0" fill="none" stroke="rgb(0, 0, 0)"/><path d="M 154.855,551.688 C 72.797,550.698 55.699,547.966 42.851,543.414 C 34.216,538.879 25.644,532.706 17.85,524.984 C 11.778,516.44 7.597,507.602 5.203,499.173 C 4.075,491.017 4.354,482.546 6.211,474.249 C 9.712,465.867 18.644,453.246 26.427,446.203 C 34.812,440.545 43.24,436.283 51.637,433.166 C 64.351,430.111 77.038,428.74 176.091,428.492" data-line="nan" stroke-width="45.0" fill="none" stroke="rgb(0, 0, 0)"/><path d="M 682.94,543.335 C 669.604,553.124 656.915,558.941 641.658,562.574 C 627.212,562.815 614.841,560.373 604.187,556.076 Q 593.839,549.071 571.973,530.506" data-line="nan" stroke-width="45.0" fill="none" stroke="rgb(0, 0, 0)"/><path d="M 1014.697,766.321 L 747.823,487.993" data-line="0.0" stroke-width="45.0" fill="none" stroke="rgb(0, 0, 0)"/><path d="M 526.035,490.895 L 252.503,768.627" data-line="2.0" stroke-width="45.0" fill="none" stroke="rgb(0, 0, 0)"/><path d="M 1014.883,255.623 L 682.94,543.335" data-line="3.0" stroke-width="45.0" fill="none" stroke="rgb(0, 0, 0)"/><path d="M 1014.883,255.623 L 1014.697,766.321" data-line="4.0" stroke-width="45.0" fill="none" stroke="rgb(0, 0, 0)"/><path d="M 254.514,255.392 L 250.956,768.418" data-line="6.0" stroke-width="45.0" fill="none" stroke="rgb(0, 0, 0)"/><path d="M 1014.883,255.623 L 254.514,255.392" data-line="7.0" stroke-width="45.0" fill="none" stroke="rgb(0, 0, 0)"/><path d="M 927.842,773.598 L 294.769,773.417" data-line="8.0" stroke-width="45.0" fill="none" stroke="rgb(0, 0, 0)"/><path d="M 571.973,530.506 L 254.514,255.392" data-line="19.0" stroke-width="45.0" fill="none" stroke="rgb(0, 0, 0)"/></g></svg>