<svg xmlns="http://www.w3.org/2000/svg" width="1024" height="1024" viewBox="-45 -7.000404357910156 1113.260009765625 1037.0174560546875" fill="none" class="colorable-icon reset-top-left-margin" data-export-recolorable-svg="true" overflow="visible" xmlns:xlink="http://www.w3.org/1999/xlink" stroke="none"><g stroke="rgb(0, 0, 0)" stroke-width="45" stroke-linecap="round" fill="none"><circle cx="259.12" cy="131.55" r="92.2064" stroke-width="45.0" fill="none" stroke="rgb(0, 0, 0)"/><circle cx="778.706" cy="130.206" r="92.2064" stroke-width="45.0" fill="none" stroke="rgb(0, 0, 0)"/><path d="M0 596.624L125.458 345.115C136.014 323.954 157.628 310.582 181.275 310.582H328.036C350.715 310.582 371.607 322.892 382.598 342.73L515.457 582.537C520.53 591.694 533.655 591.81 538.889 582.744L678.015 341.77C689.158 322.471 709.75 310.582 732.034 310.582H832.208C854.492 310.582 875.084 322.471 886.227 341.77L1023.26 579.125" stroke-width="45.0" fill="none" stroke="rgb(0, 0, 0)"/><path d="M138.646 443.168V932.032C138.646 961.293 162.367 985.014 191.628 985.014H253.953M253.953 985.014L253.953 678.827M253.953 985.014H326.167C355.428 985.014 379.148 961.293 379.148 932.032V443.168" stroke-width="45.0" fill="none" stroke="rgb(0, 0, 0)"/><path d="M780.27 985.017H717.944C688.683 985.017 664.962 961.296 664.962 932.035V723.828M780.27 985.017V723.828M780.27 985.017H852.483C881.744 985.017 905.465 961.296 905.465 932.035V723.83" stroke-width="45.0" fill="none" stroke="rgb(0, 0, 0)"/><path d="M681.715 414.902L602.549 710.353C600.74 717.106 605.828 723.737 612.819 723.737H701.107H945.091C952.083 723.737 957.171 717.106 955.362 710.353L876.196 414.902" stroke="rgb(0, 0, 0)" stroke-width="45.0" fill="none"/></g></svg>