<svg xmlns="http://www.w3.org/2000/svg" width="1024" height="1024" viewBox="-25.297000885009766 -40.04299974441528 1074.8980102539062 1105.0360107421875" class="colorable-icon reset-top-left-margin" data-export-recolorable-svg="true" overflow="visible" xmlns:xlink="http://www.w3.org/1999/xlink" fill="rgb(0, 0, 0)" stroke="none"><g fill="none" stroke="rgb(0, 0, 0)" stroke-width="45" stroke-linecap="round" stroke-linejoin="round"><path d="M 634.168,955.437 C 632.677,973.603 630.684,982.648 625.498,993.346 C 616.562,1004.376 605.161,1012.9 596.215,1017.096 Q 585.015,1019.54 568.505,1019.993" data-line="nan" stroke-width="45.0" fill="none" stroke="rgb(0, 0, 0)"/><path d="M 474.177,1019.868 Q 465.458,1018.846 458.243,1016.791" data-line="nan" stroke-width="45.0" fill="none" stroke="rgb(0, 0, 0)"/><path d="M 950.911,404.786 C 922.152,394.882 899.986,390.519 883.39,389.34 C 844.564,389.155 833.544,389.643 822.986,391.639 C 813.484,395.308 806.443,399.257 798.133,406.105 C 791.034,414.384 786.123,422.596 783.717,428.487 Q 781.151,438.366 779.948,449.683" data-line="nan" stroke-width="45.0" fill="none" stroke="rgb(0, 0, 0)"/><path d="M 940.507,723.793 C 940.038,794.057 938.879,809.401 936.581,825.433 C 932.938,840.951 927.612,856.655 921.65,869.97 C 911.387,887.319 900.98,900.52 886.83,914.676 C 873.127,925.176 858.604,933.739 841.512,941.236 C 824.733,946.423 804.765,950.223 788.678,951.347" data-line="nan" stroke-width="45.0" fill="none" stroke="rgb(0, 0, 0)"/><path d="M 458.243,1016.791 C 450.063,1013.307 441.155,1007.319 433.188,998.931 C 427.818,989.8 424.015,977.592 422.549,965.896 C 422.382,946.965 423.556,933.696 426.227,923.274 C 430.479,914.299 437.017,905.511 442.385,900.271 C 448.022,896.327 457.523,891.722 466.774,889.219 L 477.877,888.376" data-line="nan" stroke-width="45.0" fill="none" stroke="rgb(0, 0, 0)"/><path d="M 580.179,888.155 C 591.888,889.89 602.373,893.781 611.183,899.214 C 621.503,909.299 626.861,917.583 630.575,926.261 Q 632.595,934.923 633.928,951.818" data-line="nan" stroke-width="45.0" fill="none" stroke="rgb(0, 0, 0)"/><path d="M 788.157,705.34 C 794.939,715.614 800.93,721.744 807.637,727.094 C 821.69,733.787 830.065,736.025 838.625,737.114 C 877.544,737.157 902.351,734.675 916.196,731.623 Q 940.507,723.793 949.923,718.254" data-line="nan" stroke-width="45.0" fill="none" stroke="rgb(0, 0, 0)"/><path d="M 1004.551,493.564 C 1003.07,480.183 999.706,466.284 994.436,452.521 C 989.147,442.676 982.0,432.395 974.481,423.992 Q 965.939,416.214 950.911,404.786" data-line="nan" stroke-width="45.0" fill="none" stroke="rgb(0, 0, 0)"/><path d="M 22.709,647.135 C 28.845,666.783 36.524,681.788 48.131,697.147 C 61.159,709.242 75.578,719.159 90.963,726.587 C 110.896,732.965 133.013,736.618 150.361,737.387 C 188.548,736.748 201.349,733.823 211.857,729.361 C 217.485,725.638 225.658,718.37 230.756,712.212 C 235.674,704.568 239.396,696.372 242.308,686.441 Q 243.685,678.664 244.126,670.094" data-line="nan" stroke-width="45.0" fill="none" stroke="rgb(0, 0, 0)"/><path d="M 243.996,456.561 C 242.377,441.72 237.837,426.322 229.526,411.613 L 219.256,401.151" data-line="nan" stroke-width="45.0" fill="none" stroke="rgb(0, 0, 0)"/><path d="M 219.256,401.151 C 208.331,394.651 193.513,389.816 132.503,389.375 C 114.973,391.493 98.052,395.794 71.517,406.542 L 63.746,412.04" data-line="nan" stroke-width="45.0" fill="none" stroke="rgb(0, 0, 0)"/><path d="M 474.145,4.957 C 430.279,9.904 391.584,17.685 352.785,29.101 C 319.244,42.181 286.308,58.382 253.17,78.653 C 225.697,99.238 198.809,123.595 173.759,150.473 C 160.182,167.399 148.288,183.943 127.971,217.111 C 111.621,250.141 98.429,283.471 86.737,322.345 Q 79.614,355.515 71.548,406.345" data-line="nan" stroke-width="45.0" fill="none" stroke="rgb(0, 0, 0)"/><path d="M 949.8569540947132,718.1338005215302 A 105.37745053226269,105.37745053226269 0 0,0 1004.470851494261,623.8413943572159" data-line="2.0" stroke-width="45.0" fill="none" stroke="rgb(0, 0, 0)"/><path d="M 63.69871196213251,411.97417741986015 A 105.34919717163116,105.34919717163116 0 0,0 19.817448564856377,498.0254648406041" data-line="3.0" stroke-width="45.0" fill="none" stroke="rgb(0, 0, 0)"/><path d="M 949.2148292213787,404.84569428060456 A 413.2714969710912,413.2714969710912 0 0,0 579.6936501136071,8.404853273320498" data-line="4.0" stroke-width="45.0" fill="none" stroke="rgb(0, 0, 0)"/><path d="M 779.948,449.683 L 788.157,705.34" data-line="8.0" stroke-width="45.0" fill="none" stroke="rgb(0, 0, 0)"/><path d="M 568.505,1019.993 L 474.177,1019.868" data-line="8.0" stroke-width="45.0" fill="none" stroke="rgb(0, 0, 0)"/><path d="M 19.703,498.026 L 22.709,647.135" data-line="11.0" stroke-width="45.0" fill="none" stroke="rgb(0, 0, 0)"/><path d="M 477.877,888.376 L 580.179,888.155" data-line="13.0" stroke-width="45.0" fill="none" stroke="rgb(0, 0, 0)"/><path d="M 579.742,7.948 L 474.145,4.957" data-line="15.0" stroke-width="45.0" fill="none" stroke="rgb(0, 0, 0)"/><path d="M 1004.601,623.839 L 1004.551,493.564" data-line="16.0" stroke-width="45.0" fill="none" stroke="rgb(0, 0, 0)"/><path d="M 788.678,951.347 L 634.472,951.816" data-line="17.0" stroke-width="45.0" fill="none" stroke="rgb(0, 0, 0)"/><path d="M 244.126,670.094 L 243.996,456.561" data-line="19.0" stroke-width="45.0" fill="none" stroke="rgb(0, 0, 0)"/></g></svg>