<svg viewBox="0 0 96 96" xmlns="http://www.w3.org/2000/svg" xmlns:xlink="http://www.w3.org/1999/xlink" id="Icons_Future_M" overflow="hidden"><g id="Icons"><path d="M45.572 81.915C26.8419 80.5798 12.7405 64.3135 14.0757 45.5834 15.411 26.8532 31.6772 12.7519 50.4074 14.0871 63.2488 15.0026 74.4719 23.0925 79.4 34.986 79.4022 34.9911 79.3999 34.997 79.3948 34.9992 79.3936 34.9997 79.3923 35 79.391 35L64 35 64 37 83 37 83 18 81 18 81 33.57C81 33.575 80.996 33.579 80.991 33.579 80.986 33.579 80.982 33.575 80.982 33.57 73.0132 15.3545 51.7867 7.04795 33.5713 15.0167 15.3558 22.9855 7.04924 44.212 15.018 62.4274 22.9868 80.6429 44.2132 88.9495 62.4287 80.9807 75.5322 75.2483 83.9995 62.3026 84 48L82 48C81.9791 66.7981 66.7232 82.02 47.9251 81.9991 47.14 81.9982 46.3552 81.9701 45.572 81.915Z" stroke="none" stroke-width="1" stroke-linecap="butt" stroke-linejoin="miter" stroke-miterlimit="4" fill="#4AFD0E" fill-opacity="1"/><path d="M47 27 47 48.414 61.303 62.717 62.717 61.303 49 47.586 49 27 47 27Z" stroke="none" stroke-width="1" stroke-linecap="butt" stroke-linejoin="miter" stroke-miterlimit="4" fill="#4AFD0E" fill-opacity="1"/></g></svg>