<svg viewBox="0 0 96 96" xmlns="http://www.w3.org/2000/svg" xmlns:xlink="http://www.w3.org/1999/xlink" id="Icons_WinkingFace_M" overflow="hidden"><g id="Icons"><path d="M48 86C68.9868 86 86 68.9868 86 48 86 27.0132 68.9868 10 48 10 27.0132 10 10 27.0132 10 48 10 68.9868 27.0132 86 48 86ZM48 12C67.8822 12 84 28.1177 84 48 84 67.8822 67.8822 84 48 84 28.1177 84 12 67.8822 12 48 12.0226 28.1271 28.1271 12.0226 48 12Z" stroke="none" stroke-width="1" stroke-linecap="butt" stroke-linejoin="miter" stroke-miterlimit="4" fill="#4AFD0E" fill-opacity="1"/><path d="M30.058 62.374C29.7277 61.9314 29.1011 61.8403 28.6585 62.1706 28.2159 62.501 28.1248 63.1275 28.4551 63.5702 28.4694 63.5893 28.4844 63.6079 28.5 63.626 37.1146 74.3956 52.8286 76.1425 63.5981 67.5279 65.0389 66.3754 66.3475 65.0668 67.5 63.626 67.8554 63.2033 67.8008 62.5725 67.3781 62.2171 66.9553 61.8617 66.3245 61.9163 65.9691 62.339 65.9595 62.3505 65.9501 62.3621 65.941 62.374 58.0172 72.2831 43.5609 73.8925 33.6518 65.9688 32.3242 64.9072 31.1186 63.7016 30.057 62.374Z" stroke="none" stroke-width="1" stroke-linecap="butt" stroke-linejoin="miter" stroke-miterlimit="4" fill="#4AFD0E" fill-opacity="1"/><path d="M64 48.013C67.3137 48.013 70 45.3267 70 42.013 70 38.6993 67.3137 36.013 64 36.013 60.6863 36.013 58 38.6993 58 42.013 58 45.3267 60.6863 48.013 64 48.013ZM64 38.013C66.2091 38.013 68 39.8039 68 42.013 68 44.2221 66.2091 46.013 64 46.013 61.7909 46.013 60 44.2221 60 42.013 60.0011 39.8038 61.7908 38.0128 64 38.01Z" stroke="none" stroke-width="1" stroke-linecap="butt" stroke-linejoin="miter" stroke-miterlimit="4" fill="#4AFD0E" fill-opacity="1"/><path d="M26 43.012 39 43.012C39.5523 43.012 40 42.5643 40 42.012 40 41.4597 39.5523 41.012 39 41.012L26 41.012C25.4477 41.012 25 41.4597 25 42.012 25 42.5643 25.4477 43.012 26 43.012Z" stroke="none" stroke-width="1" stroke-linecap="butt" stroke-linejoin="miter" stroke-miterlimit="4" fill="#4AFD0E" fill-opacity="1"/></g></svg>